<?xml version="1.0" encoding="UTF-8" standalone="no"?>
<!-- Created with Inkscape (http://www.inkscape.org/) -->

<svg
   width="206.41225mm"
   height="157.89725mm"
   viewBox="0 0 206.41225 157.89725"
   version="1.1"
   id="svg1"
   xml:space="preserve"
   inkscape:version="1.4.2 (ebf0e940d0, 2025-05-08)"
   sodipodi:docname="console.svg"
   xmlns:inkscape="http://www.inkscape.org/namespaces/inkscape"
   xmlns:sodipodi="http://sodipodi.sourceforge.net/DTD/sodipodi-0.dtd"
   xmlns="http://www.w3.org/2000/svg"
   xmlns:svg="http://www.w3.org/2000/svg"><sodipodi:namedview
     id="namedview1"
     pagecolor="#505050"
     bordercolor="#eeeeee"
     borderopacity="1"
     inkscape:showpageshadow="0"
     inkscape:pageopacity="0"
     inkscape:pagecheckerboard="0"
     inkscape:deskcolor="#505050"
     inkscape:document-units="mm"
     showguides="true"
     inkscape:zoom="1.01"
     inkscape:cx="391.08911"
     inkscape:cy="326.73267"
     inkscape:window-width="1920"
     inkscape:window-height="1013"
     inkscape:window-x="0"
     inkscape:window-y="0"
     inkscape:window-maximized="1"
     inkscape:current-layer="layer1"><sodipodi:guide
       position="6.6208561,299.81995"
       orientation="0,-1"
       id="guide37"
       inkscape:locked="false" /></sodipodi:namedview><defs
     id="defs1" /><g
     inkscape:label="Layer 1"
     inkscape:groupmode="layer"
     id="layer1"
     transform="translate(-0.97382021,-59.519335)"><g
       id="g38"><ellipse
         style="fill:#37c837;fill-opacity:1;stroke:none;stroke-width:2.64583"
         id="path37"
         cx="7.6076641"
         cy="65.164482"
         rx="2.9712336"
         ry="2.9059319" /><ellipse
         style="fill:#ccff00;fill-opacity:1;stroke:none;stroke-width:2.64583"
         id="ellipse37"
         cx="15.545162"
         cy="65.164482"
         rx="2.9712336"
         ry="2.9059319" /><ellipse
         style="fill:#d35f5f;fill-opacity:1;stroke:none;stroke-width:2.64583"
         id="ellipse38"
         cx="23.482664"
         cy="65.164482"
         rx="2.9712336"
         ry="2.9059319" /><g
         id="g37"
         transform="translate(2.3508662,-1.8284515)"><rect
           style="fill:#c8b7b7;stroke:none;stroke-width:2.24288"
           id="rect37"
           width="191.98741"
           height="118.06572"
           x="7.0525985"
           y="84.892387" /><g
           id="g26"
           transform="translate(-1.6491871,9.8054902)"><path
             style="fill:#202223;fill-opacity:1"
             d="m 103.93713,209.4247 c -81.452978,0.0462 -99.4045252,-0.006 -100.0558644,-0.29097 -0.4365625,-0.19102 -1.1976455,-0.6877 -1.6912956,-1.10374 -0.4936501,-0.41603 -1.1161133,-1.2376 -1.38325169,-1.8257 -0.46750238,-1.0292 -0.4859239,-3.86855 -0.4915169,-75.75847 -0.005678,-72.98118 0.005736,-74.711632 0.4991246,-75.670831 0.27771449,-0.539905 0.84326129,-1.295476 1.25677079,-1.679046 0.4135095,-0.383569 1.132876,-0.889585 1.5985921,-1.124479 0.7747942,-0.390784 9.2699501,-0.42708 99.9594911,-0.42708 90.68955,0 99.1847,0.0363 99.9595,0.42708 0.46571,0.234894 1.1848,0.74091 1.59798,1.124479 0.41317,0.38357 0.91919,1.018909 1.12448,1.411864 0.31873,0.610113 0.37325,11.724241 0.37325,76.094733 v 75.38026 l -0.59923,0.88919 c -0.32957,0.48906 -1.11373,1.2508 -1.74257,1.69277 l -1.14335,0.80359 z M 7.2667296,59.738422 c 0.4406288,0.0048 1.002169,-0.254493 1.3890625,-0.641386 0.4658371,-0.465837 0.6494319,-0.938985 0.6494319,-1.673671 0,-0.753379 -0.1768358,-1.190368 -0.6686925,-1.652444 -0.4483472,-0.4212 -0.982753,-0.628204 -1.6217878,-0.628204 -0.7121115,0 -1.1116714,0.184356 -1.5802659,0.72913 -0.3837597,0.446147 -0.6239047,1.057136 -0.6187559,1.57427 0.00463,0.464828 0.1534562,1.032379 0.3307292,1.261224 0.177273,0.228845 0.5604395,0.552646 0.8514812,0.719558 0.2910417,0.166913 0.8620005,0.307098 1.2687973,0.311523 z m 7.4117914,0.008 c 0.588009,0 1.141836,-0.224651 1.599526,-0.648824 0.499543,-0.462961 0.700094,-0.913494 0.700094,-1.572746 0,-0.590593 -0.226268,-1.186973 -0.627171,-1.65305 -0.468594,-0.544774 -0.868154,-0.72913 -1.580266,-0.72913 -0.639035,0 -1.17344,0.207004 -1.621788,0.628204 -0.491856,0.462076 -0.668692,0.899065 -0.668692,1.652444 0,0.734686 0.183595,1.207834 0.649432,1.673671 0.434798,0.434798 0.946689,0.649431 1.548865,0.649431 z m 7.9708,-0.132585 c 0.427014,-0.07605 0.985812,-0.327808 1.241774,-0.55945 0.255962,-0.231643 0.539592,-0.759027 0.630288,-1.171965 0.09156,-0.416853 0.02016,-1.022485 -0.160513,-1.361627 -0.178978,-0.335957 -0.514326,-0.755872 -0.745218,-0.933145 -0.230892,-0.177273 -0.828848,-0.326102 -1.328792,-0.33073 -0.577961,-0.0053 -1.131995,0.201089 -1.521354,0.566873 -0.423519,0.397876 -0.60977,0.867043 -0.603951,1.521354 0.0046,0.520337 0.153456,1.133304 0.330729,1.362149 0.177273,0.228845 0.56044,0.557548 0.851482,0.730452 0.291041,0.172905 0.878541,0.252144 1.305555,0.176089 z"
             id="path28"
             sodipodi:nodetypes="ssssssssssssscsscssssssssssssssssssssssssscscsss" /><path
             style="fill:#505358;fill-opacity:1;stroke:none"
             d="M 103.47827,63.450634 H 0.27214111 l 0.0847706,-4.058669 C 0.44072391,55.37918 0.45060511,55.320433 1.2309459,54.19554 1.6650408,53.569774 2.4897803,52.747034 3.0637002,52.36723 l 1.0434909,-0.690554 99.2185289,-0.06719 99.21853,-0.06719 1.15339,0.558346 c 1.01676,0.492205 1.51934,1.037609 2.07007,1.758884 l 0.91668,1.200538 v 4.195286 4.195285 z M 7.2311834,59.738422 c 0.7622974,0.0063 1.1145992,-0.165384 1.6536458,-0.806005 0.376738,-0.447727 0.6849781,-1.048953 0.6849781,-1.336056 0,-0.287103 -0.1696646,-0.8501 -0.3770324,-1.251106 C 8.985407,55.94425 8.5035548,55.473913 8.1219921,55.300061 7.7404294,55.12621 7.2608525,54.983967 7.0562656,54.983967 c -0.2045868,0 -0.6694968,0.13556 -1.0331332,0.301244 -0.3636363,0.165684 -0.8489538,0.696995 -1.0784833,1.180693 -0.368008,0.775519 -0.3724445,0.986867 -0.037542,1.788402 0.2088816,0.499924 0.5993,1.036555 0.8675964,1.192512 0.2682964,0.155957 0.9237121,0.287179 1.4564799,0.291604 z m 7.5247796,0.008 c 0.627531,0 1.131359,-0.208045 1.572746,-0.649431 0.439522,-0.439523 0.649432,-0.94564 0.649432,-1.565861 0,-0.504035 -0.07396,-1.109163 -0.164355,-1.344729 -0.09039,-0.235565 -0.521577,-0.613027 -0.958183,-0.838805 -0.522575,-0.270234 -1.103592,-0.352394 -1.700349,-0.240441 -0.6302,0.118226 -1.0671,0.427796 -1.433335,1.015603 -0.35316,0.566822 -0.479916,1.107185 -0.384538,1.639289 0.07825,0.436563 0.4467,1.061641 0.818772,1.389063 0.425453,0.374396 1.019131,0.595312 1.59981,0.595312 z m 7.63781,0 c 0.664805,0 1.157377,-0.198956 1.607852,-0.649431 0.450476,-0.450476 0.649432,-0.943048 0.649432,-1.607853 0,-0.706529 -0.203263,-1.161684 -0.773397,-1.731818 -0.425369,-0.425369 -1.015079,-0.773398 -1.310467,-0.773398 -0.295389,0 -0.849258,0.142243 -1.23082,0.316094 -0.381563,0.173852 -0.863415,0.644189 -1.070783,1.045194 -0.207368,0.401006 -0.377033,0.982297 -0.377033,1.291759 0,0.309462 0.348029,0.910687 0.773398,1.336056 0.570133,0.570134 1.025289,0.773397 1.731818,0.773397 z"
             id="path26"
             sodipodi:nodetypes="ccssscccsscccccssssssssscssssssssssssssssssss" /></g></g></g></g></svg>
