<?xml version="1.0" encoding="UTF-8" standalone="no"?>
<!-- Created with Inkscape (http://www.inkscape.org/) -->

<svg
   width="128"
   height="119.99989"
   viewBox="0 0 128 119.9999"
   version="1.1"
   id="svg5"
   inkscape:version="1.1.2 (0a00cf5339, 2022-02-04)"
   sodipodi:docname="github.svg"
   xmlns:inkscape="http://www.inkscape.org/namespaces/inkscape"
   xmlns:sodipodi="http://sodipodi.sourceforge.net/DTD/sodipodi-0.dtd"
   xmlns="http://www.w3.org/2000/svg"
   xmlns:svg="http://www.w3.org/2000/svg">
  <sodipodi:namedview
     id="namedview7"
     pagecolor="#000000"
     bordercolor="#eeeeee"
     borderopacity="1"
     inkscape:pageshadow="0"
     inkscape:pageopacity="0.01176471"
     inkscape:pagecheckerboard="true"
     inkscape:document-units="px"
     showgrid="false"
     inkscape:showpageshadow="false"
     showborder="true"
     inkscape:zoom="1.5823796"
     inkscape:cx="44.553153"
     inkscape:cy="125.128"
     inkscape:window-width="1419"
     inkscape:window-height="868"
     inkscape:window-x="0"
     inkscape:window-y="0"
     inkscape:window-maximized="0"
     inkscape:current-layer="layer1"
     fit-margin-top="0"
     fit-margin-left="0"
     fit-margin-right="0"
     fit-margin-bottom="0"
     units="px"
     width="240px"
     height="120px" />
  <defs
     id="defs2">
    <filter
       style="color-interpolation-filters:sRGB"
       inkscape:label="Invert"
       id="filter838"
       x="0"
       y="0"
       width="1"
       height="1">
      <feColorMatrix
         values="1 0 0 0 0 0 1 0 0 0 0 0 1 0 0 -0.21 -0.72 -0.07 2 0 "
         result="fbSourceGraphic"
         id="feColorMatrix836" />
      <feColorMatrix
         result="fbSourceGraphicAlpha"
         in="fbSourceGraphic"
         values="0 0 0 -1 0 0 0 0 -1 0 0 0 0 -1 0 0 0 0 1 0"
         id="feColorMatrix858" />
      <feColorMatrix
         id="feColorMatrix860"
         values="1 0 0 0 0 0 1 0 0 0 0 0 1 0 0 0.21 0.72 0.07 1 0 "
         result="fbSourceGraphic"
         in="fbSourceGraphic" />
      <feColorMatrix
         result="fbSourceGraphicAlpha"
         in="fbSourceGraphic"
         values="0 0 0 -1 0 0 0 0 -1 0 0 0 0 -1 0 0 0 0 1 0"
         id="feColorMatrix880" />
      <feColorMatrix
         id="feColorMatrix882"
         type="hueRotate"
         values="180"
         result="color1"
         in="fbSourceGraphic" />
      <feColorMatrix
         id="feColorMatrix884"
         values="-1 0 0 0 1 0 -1 0 0 1 0 0 -1 0 1 0.21 0.72 0.07 1 0 "
         result="color2" />
    </filter>
  </defs>
  <g
     inkscape:label="Layer 1"
     inkscape:groupmode="layer"
     id="layer1"
     transform="translate(-80.549901,-105.97422)">
    <path
       style="fill:#f7faed;fill-opacity:1;stroke-width:0.533179;stroke:none"
       d="m 120.91288,224.58287 c -24.125797,-9.18555 -40.373771,-32.16383 -40.362974,-57.08231 0.0073,-16.76934 6.949287,-32.54932 19.42312,-44.1509 9.595204,-8.92425 20.866254,-14.50345 33.770834,-16.71666 5.16626,-0.88606 16.41841,-0.87662 21.71269,0.0181 23.29443,3.9371 42.77966,20.2684 49.97923,41.88944 6.20469,18.63331 3.06266,38.1937 -8.75607,54.51006 -6.91692,9.54915 -18.99714,18.47699 -29.71423,21.96025 -3.72996,1.21233 -5.89213,0.79306 -6.35615,-1.23244 -0.13728,-0.59872 -0.31454,-6.04867 -0.3941,-12.11096 -0.14312,-10.91252 -0.15985,-11.05042 -1.65745,-13.83295 -0.83198,-1.54579 -1.32052,-2.9759 -1.08562,-3.17802 0.23487,-0.20212 2.01048,-0.65766 3.94578,-1.01225 9.79743,-1.79526 16.76045,-6.24984 20.29839,-12.98593 2.52277,-4.80322 3.27557,-8.29635 3.3005,-15.31503 0.0266,-7.53078 -0.62897,-9.97078 -3.99025,-14.84679 -1.94498,-2.8215 -2.06866,-3.21344 -1.56707,-4.96611 0.73424,-2.56566 0.2804,-10.4474 -0.71377,-12.39542 -0.75429,-1.47806 -0.97742,-1.56631 -3.76544,-1.48947 -2.41861,0.0667 -4.06199,0.61593 -8.9367,2.98701 l -5.9731,2.90537 -4.07113,-0.83577 c -5.49057,-1.12716 -17.90383,-1.12273 -23.26254,0.008 l -3.99251,0.84266 -3.91722,-2.07422 c -4.50018,-2.38292 -9.56097,-4.17695 -11.78278,-4.17695 -0.98886,0 -1.81409,0.41726 -2.33056,1.17839 -1.15061,1.69558 -1.75773,7.3875 -1.24781,11.69853 0.43473,3.67535 0.4202,3.73899 -1.47419,6.45496 -2.79465,4.00666 -4.1048,8.60653 -4.09345,14.37184 0.0316,16.01239 7.82769,25.57255 23.33174,28.61094 2.53767,0.49731 4.60526,1.11477 4.5946,1.37218 -0.0161,0.41075 -0.72459,1.9716 -3.17987,7.01441 -0.4642,0.95341 -1.37016,1.4904 -3.33308,1.97565 -5.25112,1.2981 -11.06668,-0.54691 -13.82336,-4.38555 -3.91454,-5.45094 -7.53166,-8.06436 -11.16152,-8.06436 -2.634382,0 -3.084829,1.34187 -1.00708,3.00006 3.71893,2.968 5.11403,4.58544 7.02935,8.14966 2.52042,4.69025 3.61308,5.87327 7.03911,7.62118 2.45705,1.25356 3.27956,1.38504 8.68508,1.38837 3.34822,0.002 6.14616,0.23372 6.36981,0.5274 0.21933,0.28803 0.40252,2.95004 0.40712,5.91555 0.008,5.0318 -0.0806,5.4777 -1.32409,6.67735 -1.6518,1.59369 -1.85255,1.58684 -6.61324,-0.22572 z m 0.11288,-17.80681 c -0.36941,-0.5767 1.0138,-1.75041 1.50467,-1.27681 0.19654,0.18948 0.35717,0.65883 0.35717,1.04286 0,0.7802 -1.39929,0.95601 -1.86184,0.23395 z m 4.88537,-0.52373 c -0.16348,-0.25541 0.0445,-0.7382 0.46245,-1.07284 0.84613,-0.67751 1.71252,0.10099 1.12797,1.0135 -0.41534,0.64842 -1.19445,0.67747 -1.59042,0.0595 z m -10.08014,-0.8833 c 0,-0.48771 0.36932,-0.75487 0.90495,-0.65463 1.3618,0.25479 1.54879,1.47859 0.22592,1.47859 -0.66676,0 -1.13087,-0.33816 -1.13087,-0.82396 z m -3.98066,-1.62003 c -0.66112,-0.63786 -0.37405,-1.7457 0.45234,-1.7457 0.45235,0 0.81423,0.4655 0.81423,1.04742 0,1.04337 -0.57839,1.36222 -1.26657,0.69828 z m -3.25691,-3.666 c -0.62459,-0.60258 -0.3953,-1.22198 0.45235,-1.22198 0.44782,0 0.81422,0.3535 0.81422,0.78555 0,0.81783 -0.64199,1.03906 -1.26657,0.43643 z m -2.53315,-3.84056 c 0,-0.28805 0.24427,-0.52371 0.54282,-0.52371 0.29855,0 0.54282,0.23566 0.54282,0.52371 0,0.28803 -0.24427,0.52371 -0.54282,0.52371 -0.29855,0 -0.54282,-0.23568 -0.54282,-0.52371 z"
       id="path1120"
       inkscape:export-filename="/home/bender/MEGA/neuthral.github.io/path1120.png"
       inkscape:export-xdpi="96"
       inkscape:export-ydpi="96" />
  </g>
</svg>
