<?xml version="1.0" encoding="UTF-8" standalone="no"?>
<!-- Created with Inkscape (http://www.inkscape.org/) -->

<svg
   version="1.1"
   id="svg2"
   width="7959.5146"
   height="2830.0007"
   viewBox="0 0 7959.5146 2830.0007"
   shape-rendering="crispEdges"
   xmlns="http://www.w3.org/2000/svg"
   xmlns:svg="http://www.w3.org/2000/svg">
  <defs
     id="defs6" />
  <g
     id="g8"
     transform="translate(-18.5,-39.9994)">
    <rect
       style="fill:#505257;fill-opacity:1;stroke:none;stroke-width:1.00283"
       id="rect1735"
       width="7959.4209"
       height="2825.1086"
       x="18.594021"
       y="44.891518" />
    <path
       style="fill:#0a0c10;fill-opacity:1"
       d="m 19.694069,2869.25 c -0.233181,-0.4125 -0.597239,-75.6724 -0.809017,-167.2441 L 18.5,2535.5117 l 13,-5.2584 c 7.15,-2.8921 20.348944,-8.2523 29.330988,-11.9115 l 16.330988,-6.6531 21.633201,-23.5943 c 67.080113,-73.1613 66.342343,-72.4013 68.342513,-70.4012 1.00574,1.0058 17.49238,20.0487 36.63697,42.3177 l 34.80836,40.4891 26.20849,0.2666 26.20849,0.2666 v -132.9309 -132.9308 l -5,-13.6715 -5,-13.6715 V 2187.4143 2167 h 6.5 6.5 v 7.5 7.5 h 32.5 32.5 v -6.5 -6.5 h 4.99752 4.99752 l 0.25248,-197.7332 0.25248,-197.7331 12.75,-7.88 12.75,-7.88 v -62.961 -62.961 l 5.25,0.2798 5.25,0.2799 0.27791,-14.2802 0.27791,-14.2801 4.03438,0.2913 4.03439,0.2913 0.1877,-19.4669 0.18771,-19.4668 7.75,-0.2921 7.75,-0.292 v -6.958 V 1551 h 9.5 9.5 v -18.0915 -18.0915 l 4.73938,-7.9085 4.73937,-7.9085 H 470.73938 483 v 5.5 5.5 h 8.5 8.5 l 0.01,-29.75 0.01,-29.75 42.77091,-29.2729 42.77091,-29.2729 82.96931,0.015 82.96931,0.015 0.27903,13.0079 0.27902,13.0078 h 11.47098 11.47097 v 7 7 h 36 36 v 7.2796 7.2795 l 29.75,2.7391 c 16.3625,1.5065 42.35,3.872 57.75,5.2567 15.4,1.3847 29.01019,2.7343 30.24488,2.9991 l 2.24487,0.4815 0.25513,93.7323 0.25512,93.7322 74.74996,0.2564 74.75,0.2563 v 40.5652 40.5652 l 2.75,-0.3215 2.75,-0.3216 0.2938,7.25 0.2938,7.25 h 5.4562 5.4562 v 45.5 45.5 h 4.5 4.5 v 61.5 61.5 h 3.5 3.5 v -27 -27 h 21.4839 21.484 l 0.266,-27.0222 0.2661,-27.0221 42.7241,-0.2279 42.7241,-0.2278 0.2759,14 0.2759,14 9.25,0.2875 9.25,0.2876 v 12.9493 12.9493 l 34.25,0.2632 34.25,0.2631 0.7114,25 c 0.3913,13.75 0.8413,26.0577 1,27.3504 0.2829,2.3043 0.5145,2.3534 11.7886,2.5 l 11.5,0.1496 0.2977,6.25 0.2977,6.25 h 13.9425 13.9425 l 0.2598,-47.0177 0.2598,-47.0177 54.8991,2e-4 c 30.1945,0 55.132,0.233 55.4167,0.5177 0.2846,0.2846 6.2189,0.5175 13.1871,0.5175 h 12.6696 l 0.6628,56.25 c 0.3645,30.9375 0.6632,81.7875 0.6637,113 l 10e-4,56.75 h 13 13 l 0.1153,-174.25 c 0.063,-95.8375 0.22,-174.7 0.3477,-175.25 0.1278,-0.55 0.3009,-12.8036 0.3847,-27.2301 l 0.1523,-26.2301 21.25,-0.2699 21.25,-0.2699 0.5,-48.1674 c 0.275,-26.492 0.725,-48.3435 1,-48.5588 0.275,-0.2153 7.3285,-5.4275 15.6743,-11.5826 l 15.1744,-11.1912 h 31.0521 31.052 l 4.7736,6.4589 4.7736,6.4589 11.5896,0.041 11.5896,0.041 0.671,-52.75 c 0.369,-29.0125 0.7041,-72.55 0.7447,-96.75 l 0.074,-44 12.1735,-32 12.1734,-32 28.1328,-0.2654 28.1327,-0.2654 3.9847,11.2654 c 2.1917,6.196 8.768,25.5188 14.6142,42.9396 l 10.6293,31.6742 -0.2546,212.5758 L 1865.5,1845 h 13.7269 c 16.0846,0 13.041,-2.4283 24.4597,19.5149 4.2974,8.2582 12.0884,23.2181 17.3134,33.2441 l 9.5,18.2292 8.25,0.01 8.25,0.01 v -9.5 -9.5 h 8.3628 8.3629 l 5.1371,14.7943 5.1372,14.7943 -10e-5,20.4557 -10e-5,20.4557 16.6163,-0.1996 c 9.139,-0.1097 16.7779,-0.361 16.9752,-0.5584 0.1974,-0.1974 0.4039,-23.5076 0.4589,-51.8004 0.055,-28.2929 0.5081,-100.7166 1.0068,-160.9416 l 0.9068,-109.5 7.6513,-7.1042 7.6513,-7.1042 -0.4502,-52.037 -0.4502,-52.0371 -8.1739,-8.8587 -8.1739,-8.8588 -0.01,-31.75 -0.01,-31.75 h 4.5 4.5 v -6.5 -6.5 l 4.75,-0.039 4.75,-0.039 34.5,-46.3485 34.5,-46.3485 0.2921,-7.6125 0.292,-7.6125 h 50.777 50.777 l 22.681,-74.4003 22.6809,-74.4004 v -13.0996 -13.0997 h 3.4547 c 4.2469,0 4.2203,0.1228 5.1035,-23.5 1.1742,-31.4028 1.6497,-32.0656 4.3038,-6 3.0897,30.3442 2.6521,28.5 6.763,28.5 h 3.375 v 12.8973 12.8974 l 9.9996,26.3526 9.9997,26.3527 3e-4,20.75 4e-4,20.75 h 7.9387 7.9388 l 0.5147,4.25 c 0.2831,2.3375 1.9111,29.225 3.6177,59.75 1.7066,30.525 3.4647,60.675 3.907,67 0.4422,6.325 0.8803,28.825 0.9735,50 l 0.1694,38.5 3.9701,11.3156 3.9701,11.3157 v 160.9343 160.9344 h 17 17 v -155 -155 h 5 5 v -12.4425 -12.4425 l 4.25,-0.3075 4.25,-0.3075 0.2566,-72.25 0.2566,-72.25 h 4.4224 4.4225 l 1.5078,-5.25 c 0.8294,-2.8875 8.0322,-29.325 16.0063,-58.75 l 14.4984,-53.5 6.6285,-66.9805 c 5.8042,-58.6497 7.4913,-73.4737 7.5042,-65.9362 0,1.6515 5.5208,50.8562 13.1115,116.9167 l 2.1831,19 16.3944,54.5 c 9.0169,29.975 16.6301,55.2875 16.9184,56.25 0.3837,1.2812 1.5777,1.75 4.4567,1.75 h 3.9326 v 26.5 26.5 h 5 5 v 28.5 28.5 h 3.3426 3.3426 l 0.6543,17.25 c 0.3599,9.4875 0.6558,39.4125 0.6574,66.5 v 49.25 l 2.25,-0.014 c 1.2375,-0.01 3.2625,-0.2849 4.5,-0.6166 l 2.25,-0.603 v -25.6834 -25.6835 l 21.25,-20.1725 21.25,-20.1725 8.75,-0.027 8.75,-0.027 v 4.5 4.5 h 3.9904 3.9904 l 0.2596,48.25 0.2596,48.25 4.25,0.3075 4.25,0.3075 v 46.1507 46.1507 l 4.4938,-4.4103 4.4937,-4.4103 0.2563,-75.5479 0.2562,-75.5479 37.8725,-0.2621 37.8726,-0.2622 -0.7473,-180.8399 -0.7473,-180.8399 26.8748,-0.673 c 14.7811,-0.3702 41.066,-1.1494 58.4109,-1.7315 l 31.5362,-1.0584 23.4638,4.1398 c 12.9051,2.2769 24.4763,4.3882 25.7138,4.6919 l 2.25,0.5521 v -17.1084 -17.1084 h -4.5 -4.5 v -6 -6 h 12.5 12.5 v 5.9425 5.9425 l -4.25,0.3075 -4.25,0.3075 -0.2748,16.25 c -0.1511,8.9375 -0.085,16.25 0.1467,16.25 0.3595,0 51.7354,10.4735 91.0156,18.5544 6.5382,1.3451 12.0507,2.4456 12.25,2.4456 0.1994,0 0.3625,106.4425 0.3625,236.5389 v 236.539 l 8.75,-0.289 8.75,-0.2889 0.2367,-114.5 0.2366,-114.5 60.7634,-0.6057 c 33.4198,-0.3331 64.9258,-0.6706 70.0133,-0.75 L 3109,1444 l -0.026,-8.25 c -0.022,-6.9932 1.158,-13.0172 7.7448,-39.5438 l 7.7706,-31.2937 5,0.2937 5,0.2938 16.7336,26.5 16.7337,26.5 0.022,114.25 0.021,114.25 h 3.5 3.5 l 0.012,-20.25 0.012,-20.25 17.5834,-15.25 c 9.6708,-8.3875 17.9903,-14.9984 18.4878,-14.691 0.4975,0.3075 0.9045,7.2825 0.9045,15.5 V 1607 h 5.5 5.5 v -93 -93 l 18.25,0.051 18.25,0.051 29,32.5493 29,32.5492 0.5,-63.2921 0.5,-63.2922 52.5,-43.3881 c 28.875,-23.8635 66.3636,-54.8272 83.308,-68.8084 l 30.8079,-25.4203 h 10.8864 10.8864 l 9.9082,16.75 c 5.4496,9.2125 18.8621,32.0125 29.8057,50.6666 l 19.8974,33.9165 0.2576,-61.6665 0.2577,-61.6666 H 3630.9 c 50.1858,0 63.9883,0.2681 64.3653,1.25 0.2639,0.6875 13.362,21.2023 29.107,45.5884 l 28.6271,44.3383 v 259.4117 259.4116 h 29 29 v -25.4748 -25.4748 l 17.3117,-26.7752 c 9.5215,-14.7264 22.5707,-34.96 28.9982,-44.9637 l 11.6863,-18.1885 0.2519,-261.1704 0.2519,-261.1704 76.454,-42.887 c 42.0498,-23.5879 76.7658,-42.5514 77.1468,-42.1412 0.381,0.4103 17.6142,24.7954 38.296,54.1891 l 37.6032,53.4432 v 225.2113 225.2112 l 15.4987,36.3456 15.4988,36.3456 v 107.25 107.25 h 22.3513 22.3514 l 0.6758,-37.25 c 0.3718,-20.4875 1.1117,-67.175 1.6442,-103.75 0.9651,-66.2759 2.1015,-143.8816 3.983,-272 0.5452,-37.125 1.4309,-98.55 1.9682,-136.5 0.5372,-37.95 1.2077,-81.825 1.4897,-97.5 0.2821,-15.675 0.7562,-48.075 1.0534,-72 0.2973,-23.925 0.9721,-72.3 1.4996,-107.5 0.5274,-35.2 1.4202,-95.5 1.984,-134 0.5638,-38.5 1.4613,-99.25 1.9945,-135 0.5332,-35.75 1.207,-83.225 1.4974,-105.5 0.2904,-22.275 0.8033,-49.6125 1.1398,-60.75 l 0.6118,-20.25 h 12.9093 c 9.4494,0 13.0156,-0.33503 13.3059,-1.25 0.218,-0.6875 0.6434,-5.3 0.9452,-10.25 0.3018,-4.95 1.3271,-19.52293 2.2784,-32.3843 l 1.7296,-23.38429 13.4422,-17.11571 c 7.3933,-9.41363 14.7209,-18.74969 16.2836,-20.74678 l 2.8414,-3.63108 1.4782,-40.36892 c 0.813,-22.20291 1.7122,-44.86892 1.9981,-50.36892 0.286,-5.5 0.7578,-16.3 1.0484,-24 0.2906,-7.7 0.9779,-25.925 1.5274,-40.5 0.5494,-14.575 1.4351,-37.3 1.9682,-50.5 0.5331,-13.2 1.4305,-35.925 1.9943,-50.5 0.5637,-14.575 1.4707,-37.8625 2.0153,-51.75 0.5447,-13.8875 1.4291,-36.8375 1.9652,-51 0.5361,-14.1625 1.2056,-30.7 1.4876,-36.75 0.282,-6.05 0.9807,-25.175 1.5527,-42.5 1.1482,-34.779265 1.4407,-38 3.4506,-38 1.7767,0 2.3061,6.125386 3.0249,35 0.3081,12.375 0.7765,28.575 1.0409,36 0.8944,25.11631 2.4105,71.39645 2.9646,90.5 0.3031,10.45 0.7728,24.85 1.0437,32 0.271,7.15 0.94,27.625 1.4867,45.5 0.5467,17.875 1.4399,46 1.9849,62.5 0.917,27.76708 2.0611,63.06389 3.5656,110 0.3349,10.45 0.9577,28 1.3839,39 l 0.7749,20 9.9295,21 c 5.4612,11.55 13.9581,31.92594 18.8821,45.27987 l 8.9526,24.27986 13.4196,-0.1367 13.4196,-0.13671 0.3228,8.85684 c 0.1775,4.87126 0.7877,35.85684 1.356,68.85684 0.5683,33 1.4657,82.725 1.9941,110.5 0.5284,27.775 1.4182,74.575 1.9773,104 0.5591,29.425 1.4613,76.675 2.0048,105 0.5435,28.325 1.4322,75.8 1.9748,105.5 0.5426,29.7 1.2355,65.925 1.5397,80.5 0.3041,14.575 0.992,51.025 1.5285,81 1.0876,60.7601 2.4649,134.6108 3.9538,212 1.9207,99.8352 3.024,158.0528 3.9895,210.5 0.9794,53.2072 1.2615,67.7478 3.0171,155.5 0.5226,26.125 1.2386,66.175 1.591,89 0.3524,22.825 0.739,44.425 0.8593,48 0.1202,3.575 0.2936,13.3625 0.3854,21.75 L 4387,2017 h 10.3865 10.3864 l 0.7408,-4.75 c 0.4074,-2.6125 0.6895,-40.75 0.627,-84.75 -0.2753,-193.7831 -1.1987,-454.9729 -1.7243,-487.75 l -0.5732,-35.75 h 4.0479 c 3.9209,0 4.2068,-0.2354 9.1089,-7.5 l 5.0609,-7.5 h 93.0883 93.0883 l -0.3687,38.75 -0.3688,38.75 2.2321,0.3172 2.232,0.3172 0.268,-24.3172 0.2679,-24.3172 3.9816,-0.5 3.9817,-0.5 2.692,-17 c 1.4806,-9.35 5.4399,-34.1 8.7984,-55 5.6596,-35.2197 7.1155,-47.4848 8.6058,-72.5 0.3113,-5.225 0.8193,-10.625 1.1291,-12 0.3097,-1.375 2.0498,8.975 3.867,23 2.7576,21.2845 18.238,120.374 19.9579,127.75 0.49,2.1016 1.0511,2.25 8.5056,2.25 H 4685 v 9 9 h 4.5 4.5 v 94.5 94.5 h 3.4967 3.4966 l 0.2534,145.75 0.2533,145.75 h 4.5 4.5 l 0.2675,-24.75 0.2674,-24.75 h 3.4826 3.4825 v -5.5 -5.5 h 29 29 v -75.9936 -75.9935 l 73.75,-0.2565 73.75,-0.2564 0.2617,-38.75 0.2618,-38.75 H 5012.0117 5100 v 33 33 h 21.4718 21.4718 l 0.2782,13.75 0.2782,13.75 13,0.1641 13,0.164 0.2521,239.5192 c 0.2389,227.0209 0.3432,239.5458 2,240.029 0.9613,0.2803 4.5604,1.0439 7.9979,1.6968 l 6.25,1.1871 v 12.2274 12.2275 l 6.1467,0.6424 c 3.3807,0.3534 7.9373,0.6425 10.1259,0.6425 h 3.9793 l -0.6809,27.5 -0.6808,27.5 h 3.4479 c 4.18,0 4.6619,-1.0015 4.6619,-9.6888 0,-5.3227 0.2702,-6.4215 1.4663,-5.9625 1.6916,0.6491 32.4686,1.0497 33.0876,0.4307 0.2265,-0.2264 0.439,-24.566 0.4723,-54.0879 l 0.061,-53.6762 7.8754,-5.0519 7.8754,-5.0518 0.5574,-7.2058 c 0.3066,-3.9632 0.7206,-22.1708 0.92,-40.4613 0.1994,-18.2905 0.6364,-33.5292 0.971,-33.8638 0.3346,-0.3347 4.1675,-1.0783 8.5175,-1.6527 l 7.909,-1.0442 0.6392,-11.0919 c 0.3516,-6.1005 0.6413,-14.334 0.6438,-18.2966 v -7.2047 l 3.25,-0.5203 c 1.7875,-0.2862 18.1,-1.6587 36.25,-3.0501 18.15,-1.3914 39.075,-3.0038 46.5,-3.5832 l 13.5,-1.0535 4.0254,-4.2904 c 4.6106,-4.9142 5.3522,-5.0541 32.4746,-6.1252 7.975,-0.3149 15.4,-0.7513 16.5,-0.9698 1.1,-0.2184 5.8689,-0.4795 10.5976,-0.5802 l 8.5976,-0.1831 0.6493,-17.1174 c 0.3572,-9.4146 0.6508,-37.4291 0.6524,-62.2544 v -45.137 l 8.75,-4.9739 8.75,-4.9739 0.2817,-11.6391 0.2818,-11.6391 h 3.9682 3.9683 v -25.9366 -25.9367 l 3.032,-0.3133 3.0321,-0.3134 0.2179,-54 0.218,-54 5.783,-0.3009 5.7831,-0.3009 -0.1099,-23.1991 -0.1099,-23.1991 3.4135,-0.3006 3.4134,-0.3006 1.3157,-36.9638 c 0.7236,-20.3301 1.4599,-36.8195 1.6363,-36.6431 0.1764,0.1763 0.7788,6.5953 1.3387,14.2644 1.1073,15.1679 1.5625,21.2542 3.054,40.8389 0.5402,7.0924 0.9821,13.9549 0.9821,15.25 0,2.1242 0.4407,2.3548 4.5,2.3548 h 4.5 v 23 23 h 4.4914 4.4914 l 0.2586,54.25 0.2586,54.25 3.75,0.3104 3.75,0.3103 V 1807.5604 1822 h 4.5 4.5 v 20 20 h 5 5 v 20.5655 20.5656 l 3.5775,7.6844 3.5775,7.6845 0.5318,24 0.5319,24 3.8906,7.2029 c 3.3293,6.1636 3.8907,8.0984 3.8907,13.4096 0,5.9459 0.2521,6.5747 6,14.9669 5.3964,7.8789 6,9.2713 6,13.8404 V 2021 h 37 37 v 8.5 8.5 h 5 5 v 8 8 h 46.9951 46.9951 l 0.2549,98.25 0.2549,98.25 32.75,0.2637 32.75,0.2636 V 2357.5137 2464 h 3 3 v -115 -115 h 6.5 6.5 v -160 -160 h 6 6 v -26.3829 -26.3829 l 21.5,-14.7227 21.5,-14.7226 0.01,-18.1445 0.01,-18.1444 13.492,-28.3531 c 7.4205,-15.5942 13.4919,-28.7567 13.4919,-29.25 0,-3.0237 2.6756,1.5945 12.25,21.1446 l 10.75,21.9504 v 7.504 7.5041 h 5 5 v 19.0548 19.0548 l 4.6958,-0.3048 4.6958,-0.3048 21.5641,-73 21.5642,-73 2.6445,0.309 c 1.4545,0.17 2.9315,-0.1552 3.2822,-0.7226 0.3507,-0.5674 1.9738,-14.4315 3.6069,-30.809 1.6332,-16.3776 3.105,-30.4524 3.2708,-31.2774 0.7214,-3.5899 2.8547,17.3841 3.9667,39 l 1.209,23.5 2.8091,0.3221 c 1.5449,0.1772 3.0006,0.8522 3.2348,1.5 0.2342,0.6479 2.2496,10.8529 4.4788,22.6779 2.2291,11.825 4.2913,22.2875 4.5825,23.25 0.3854,1.2735 1.582,1.75 4.3948,1.75 2.8211,0 4.0024,0.4727 4.3729,1.75 0.2793,0.9625 6.1596,20.6965 13.0674,43.8534 6.9078,23.1569 12.5597,42.5497 12.5597,43.095 0,0.5453 1.8,3.7765 4,7.1803 3.9312,6.0824 4,6.3476 4,15.4248 v 9.236 l 9.5,9.4605 9.5,9.4605 v 43.2851 43.2852 l 6,11.9692 6,11.9692 v 63.8825 63.8825 l 4,2.6471 4,2.6471 V 2200.5142 2281 h 18 18 v -258 -258 h 16.5 16.5 v -21 -21 h 3 3 v -25.5 -25.5 h 18.4903 18.4903 l 0.2597,-47.5208 0.2597,-47.5208 68,-0.2292 68,-0.2292 0.2817,-11.75 0.2818,-11.75 h 2.9682 2.9683 v 11 11 h 40 40 v -12 -12 h 4.5 4.5 v 13.5 13.5 h 13 13 v -13.5 -13.5 h 9 9 v 14.5 14.5 h 17 17 v 47 47 h 22 22 v 147.5199 147.5199 l 21.0818,-0.2699 21.0819,-0.2699 -0.1191,-19.7014 -0.1191,-19.7013 7.044,-7.9938 c 3.8742,-4.3966 7.5046,-8.2785 8.0676,-8.6264 0.5629,-0.3479 7.4223,-0.7101 15.2432,-0.8048 l 14.2197,-0.1723 0.2565,-72.698 0.2565,-72.6979 5.2186,-0.3021 5.2186,-0.302 12.9859,-39.75 12.9859,-39.75 h 6.789 6.789 v -6.5 -6.5 h 55.3304 55.3305 l 22.6695,47.9485 22.6696,47.9485 v 79.6545 79.6544 l 6,6.954 6,6.954 0.01,33.1931 0.01,33.193 3.9886,20.5 3.9886,20.5 0.01,63.3296 0.01,63.3296 6.25,-0.5666 c 3.4375,-0.3116 12.1,-1.0283 19.25,-1.5926 7.15,-0.5643 15.8125,-1.281 19.25,-1.5926 l 6.25,-0.5666 V 2116.9204 2062 h 58.5 58.5 v 53.4915 c 0,52.4085 0.041,53.5168 2,54.7406 1.8426,1.1507 2,2.332 2,15.0084 V 2199 h 34 34 v 20.5 20.5 h 35.5 35.5 v -8.471 -8.4709 l 13.0872,-0.2791 13.0873,-0.279 0.1627,-13 0.1628,-13 30.6376,-0.2643 30.6377,-0.2643 21.7271,-47.2357 c 11.9499,-25.9796 22.3776,-48.2737 23.1726,-49.5425 1.1461,-1.8289 2.1802,-2.2432 4.9919,-2 l 3.5463,0.3068 14.7134,39.5 14.7134,39.5 8.2433,0.5 8.2432,0.5 -0.091,28.75 -0.091,28.75 h 4.8291 4.8292 l 7.1352,11.075 7.1352,11.0749 2.6967,-4.0749 2.6967,-4.075 h 20.8671 20.8671 v -17.5 -17.5 h 18.5 18.5 v 19 19 h 25 25 v -26.6258 -26.6259 l 8.6288,-19.8741 8.6288,-19.8742 h 35.3712 35.3712 v 71.946 71.946 l 6.5,11.1836 c 4.9805,8.5691 6.5,12.0962 6.5,15.0878 v 3.9043 l 10.75,-0.2839 10.75,-0.2838 2.0777,-8 2.0777,-8 8.1723,-0.2904 8.1723,-0.2905 v -54.5896 -54.5895 l 7,-12.3784 7,-12.3784 1e-4,-113.2416 1e-4,-113.2416 8.4999,-13.2675 8.4999,-13.2675 v -37.9524 -37.9523 l 9.5924,-15.5301 9.5924,-15.5302 h 7.2712 7.2711 l 1.639,-12.25 c 0.9015,-6.7375 1.6379,-13.4125 1.6365,-14.8333 0,-1.4209 0.3226,-2.9086 0.7201,-3.3061 0.3976,-0.3975 1.5102,5.4708 2.4727,13.0408 0.9624,7.5699 1.973,14.3451 2.2458,15.056 0.3222,0.8397 2.4206,1.2926 5.9889,1.2926 h 5.4928 l 1.0245,3.8045 c 0.5634,2.0924 1.312,5.2424 1.6635,7 0.6366,3.1828 0.6638,3.1955 6.8557,3.1955 h 6.2167 l 6.1583,9.5731 6.1584,9.5732 v 165.3759 165.3759 l 33.5709,11.0662 c 18.4639,6.0864 33.9324,10.8427 34.3743,10.5695 0.442,-0.2731 4.2064,-6.4674 8.3653,-13.7652 10.68,-18.7401 9.5364,-17.841 13.6895,-10.7632 l 3.5,5.9648 16.2192,0.015 16.2192,0.015 0.2808,12.25 0.2808,12.25 13.25,0.279 13.25,0.2791 v 328.4709 328.471 h -3978.941 c -2188.4175,0 -3979.13175,-0.3375 -3979.364931,-0.75 z"
       id="path881" />
  </g>
</svg>
